<?xml version="1.0" encoding="UTF-8"?><svg id="uuid-e5369afe-3988-4b00-b72c-d02a19cda972" xmlns="http://www.w3.org/2000/svg" viewBox="0 0 28 28"><defs><style>.uuid-7c67e6b5-0624-43ec-a7ea-a0e0b06b8d99{fill:#404040;}</style></defs><path class="uuid-7c67e6b5-0624-43ec-a7ea-a0e0b06b8d99" d="M13.6,2.2c-4.2,.2-7.7,3.6-8,7.8-.1,2,.4,3.9,1.5,5.4,2,2.8,3.8,5.8,5.4,8.8l.4,.8c.4,.9,1.7,.9,2.1,0l.4-.8c1.6-3.1,3.4-6,5.4-8.8,1-1.4,1.6-3.1,1.6-4.9,0-4.8-4-8.6-8.8-8.4Zm.4,12.9c-2.5,0-4.6-2-4.6-4.6s2-4.6,4.6-4.6,4.6,2,4.6,4.6-2,4.6-4.6,4.6Z"/></svg>