<?xml version="1.0" encoding="UTF-8"?><svg id="uuid-e7cd92ef-cba1-44dd-a0ec-0747a3fc360a" xmlns="http://www.w3.org/2000/svg" viewBox="0 0 28 28"><defs><style>.uuid-9daa98ce-ec32-4b7d-8ef3-beda86bfcc2f{fill:#fff;}</style></defs><path class="uuid-9daa98ce-ec32-4b7d-8ef3-beda86bfcc2f" d="M23.1,6.3h-3.9v-1.4c0-1.1-.9-2.1-2.1-2.1h-6c-1.1,0-2.1,.9-2.1,2.1v1.4h-3.6c-.9,0-1.6,.7-1.6,1.6v12.3c0,.9,.7,1.6,1.6,1.6h3.6V6.3h2v15.5h6.2V6.3h2v15.5h3.9c.9,0,1.6-.7,1.6-1.6V8c0-.9-.7-1.6-1.6-1.6Zm-5.9,0h-6.2v-1.4c0,0,0-.1,.1-.1h6c0,0,.1,0,.1,.1v1.4Z"/></svg>