<?xml version="1.0" encoding="UTF-8"?><svg id="uuid-f1a2ff6d-821a-446e-8ebf-babf5fff3c13" xmlns="http://www.w3.org/2000/svg" viewBox="0 0 28 28"><defs><style>.uuid-2e822e98-282b-4bbb-a9fb-1ae2418d894a{fill:#fff;}</style></defs><path class="uuid-2e822e98-282b-4bbb-a9fb-1ae2418d894a" d="M5.1,21.3c0,.5,.4,.9,.9,.9h1.7c.5,0,.9-.4,.9-.9v-2.1h-3.6v2.1Z"/><path class="uuid-2e822e98-282b-4bbb-a9fb-1ae2418d894a" d="M19.3,21.3c0,.5,.4,.9,.9,.9h1.7c.5,0,.9-.4,.9-.9v-2.1h-3.6v2.1Z"/><path class="uuid-2e822e98-282b-4bbb-a9fb-1ae2418d894a" d="M22.7,10.9l-.4-4.2c-.1-1.4-1.3-2.6-2.8-2.6H8.4c-1.4,0-2.6,1.1-2.8,2.6l-.4,4.2c-1,.2-1.7,1.1-1.7,2.2v4.9c0,.4,.3,.6,.6,.6H23.9c.4,0,.6-.3,.6-.6v-4.9c0-1.1-.7-2-1.7-2.2M6.9,15.3c-.8,0-1.4-.6-1.4-1.4s.6-1.4,1.4-1.4,1.4,.6,1.4,1.4-.6,1.4-1.4,1.4m0-4.4l.4-4c0-.6,.6-1.1,1.2-1.1h11.2c.6,0,1.1,.5,1.2,1.1l.4,4H6.8Zm14.3,4.4c-.8,0-1.4-.6-1.4-1.4s.6-1.4,1.4-1.4,1.4,.6,1.4,1.4-.6,1.4-1.4,1.4"/></svg>