<?xml version="1.0" encoding="UTF-8"?><svg id="uuid-a864e963-1ca4-4513-a5b7-3d07aae32b41" xmlns="http://www.w3.org/2000/svg" viewBox="0 0 60 60"><defs><style>.uuid-aaad3915-5e9e-430f-aa62-986eaef05d2a{fill:#fff;}.uuid-054e4fd0-cc96-403d-be52-0ad2bd30f331{fill:#006e00;}</style></defs><circle class="uuid-054e4fd0-cc96-403d-be52-0ad2bd30f331" cx="30" cy="30" r="30"/><path class="uuid-aaad3915-5e9e-430f-aa62-986eaef05d2a" d="M11.9,53.9c-.6-.8-1.3-1.8-1.2-2.8,.5-5.1,6.1-13.5,11.4-15.8,2.2,1.5,4.9,2.4,7.9,2.4s5.6-.9,7.9-2.4c5.3,2.3,10.9,10.7,11.4,15.8,.1,1-.5,2.1-1.2,2.8,2-1.5,3.8-3.3,5.4-5.3-1.5-5.9-6.5-13.3-12.1-16.7,1.7-2.4,2.8-5.3,2.8-8.4,0-7.8-6.4-14.2-14.2-14.2s-14.2,6.4-14.2,14.2,1,6.1,2.8,8.4c-5.6,3.4-10.7,10.8-12.1,16.7,1.6,2,3.4,3.8,5.4,5.3ZM30,14c5.3,0,9.5,4.3,9.5,9.5s-4.3,9.5-9.5,9.5-9.5-4.3-9.5-9.5,4.3-9.5,9.5-9.5Z"/></svg>