<svg xmlns="http://www.w3.org/2000/svg" xmlns:xlink="http://www.w3.org/1999/xlink" width="29.508" height="25.746" viewBox="0 0 29.508 25.746">
  <defs>
    <clipPath id="clip-path">
      <rect width="29.508" height="25.746" fill="none"/>
    </clipPath>
  </defs>
  <g id="リピートグリッド_1" data-name="リピートグリッド 1" clip-path="url(#clip-path)">
    <g id="グループ_1342" data-name="グループ 1342" transform="translate(-12511.274 -4690)">
      <g id="グループ_1341" data-name="グループ 1341">
        <path id="パス_252" data-name="パス 252" d="M12517.2,4694.868a.837.837,0,0,1,.845.9s-.262,4.051-.262,7.539.265,7.757.265,7.757a.841.841,0,0,1-.848.9h-4.21a1.142,1.142,0,0,1-1.075-.888,46.924,46.924,0,0,1-.637-8.028,35.586,35.586,0,0,1,.6-7.3,1.2,1.2,0,0,1,1.109-.881h4.21" fill="#404040"/>
        <path id="パス_253" data-name="パス 253" d="M12539.525,4697.64v-5.554l-.431-.358-1.743-1.451-.332-.277h-17.888v7.695c-.073,1.489-.158,3.651-.158,5.615,0,3.409.261,7.64.264,7.683a2.037,2.037,0,0,1-2.041,2.171h-3.514v.987a1.6,1.6,0,0,0,1.6,1.6h23.908a1.6,1.6,0,0,0,1.6-1.6V4699.2A1.6,1.6,0,0,0,12539.525,4697.64Zm-13.618,13.8a.6.6,0,0,1-.6.6h-1.417a.6.6,0,0,1-.6-.6v-1.134a.6.6,0,0,1,.6-.6h1.417a.6.6,0,0,1,.6.6Zm0-3.5a.6.6,0,0,1-.6.6h-1.417a.6.6,0,0,1-.6-.6v-1.133a.6.6,0,0,1,.6-.6h1.417a.6.6,0,0,1,.6.6Zm0-3.5a.6.6,0,0,1-.6.6h-1.417a.6.6,0,0,1-.6-.6v-1.133a.6.6,0,0,1,.6-.6h1.417a.6.6,0,0,1,.6.6Zm4.437,6.993a.6.6,0,0,1-.6.6h-1.416a.6.6,0,0,1-.6-.6v-1.134a.6.6,0,0,1,.6-.6h1.416a.6.6,0,0,1,.6.6Zm0-3.5a.6.6,0,0,1-.6.6h-1.416a.6.6,0,0,1-.6-.6v-1.133a.6.6,0,0,1,.6-.6h1.416a.6.6,0,0,1,.6.6Zm0-3.5a.6.6,0,0,1-.6.6h-1.416a.6.6,0,0,1-.6-.6v-1.133a.6.6,0,0,1,.6-.6h1.416a.6.6,0,0,1,.6.6Zm4.437,6.993a.6.6,0,0,1-.6.6h-1.416a.6.6,0,0,1-.6-.6v-1.134a.6.6,0,0,1,.6-.6h1.416a.6.6,0,0,1,.6.6Zm0-3.5a.6.6,0,0,1-.6.6h-1.416a.6.6,0,0,1-.6-.6v-1.133a.6.6,0,0,1,.6-.6h1.416a.6.6,0,0,1,.6.6Zm0-3.5a.6.6,0,0,1-.6.6h-1.416a.6.6,0,0,1-.6-.6v-1.133a.6.6,0,0,1,.6-.6h1.416a.6.6,0,0,1,.6.6Zm3.55-3.568h-18v-9.686h16.261l.039,1.436,1.7.015Z" fill="#404040"/>
        <g id="グループ_1340" data-name="グループ 1340">
          <path id="パス_254" data-name="パス 254" d="M12526.065,4694.054a.212.212,0,0,0-.21-.211h-3.325a.211.211,0,0,0-.21.211v4.806a.21.21,0,0,0,.21.211h.992a.21.21,0,0,0,.21-.211v-1.789h1.779a.21.21,0,0,0,.211-.21v-.73a.211.211,0,0,0-.211-.21h-1.779v-.927h2.123a.211.211,0,0,0,.21-.21Z" fill="#404040"/>
          <path id="パス_255" data-name="パス 255" d="M12529.484,4693.98a.212.212,0,0,0-.2-.137h-1.17a.211.211,0,0,0-.2.138l-1.778,4.807a.21.21,0,0,0,.2.283h1.012a.21.21,0,0,0,.2-.145l.376-1.149h1.517l.384,1.15a.209.209,0,0,0,.2.144h1.047a.211.211,0,0,0,.2-.284Zm-1.106,2.4c.109-.323.214-.65.312-.967.1.325.2.656.311.97l.1.295h-.818Z" fill="#404040"/>
          <path id="パス_256" data-name="パス 256" d="M12536.347,4698.747l-1.488-2.331,1.388-2.252a.211.211,0,0,0-.179-.321h-1.046a.21.21,0,0,0-.185.109l-.575,1.048c-.073.138-.143.274-.216.423l-.006-.011c-.082-.147-.156-.281-.232-.415l-.595-1.047a.21.21,0,0,0-.183-.107h-1.108a.211.211,0,0,0-.178.322l1.394,2.217-1.489,2.367a.21.21,0,0,0,.178.322h1.06a.211.211,0,0,0,.184-.107l.637-1.126c.09-.161.171-.313.251-.467l.058.1c.072.126.141.246.207.365l.659,1.129a.209.209,0,0,0,.181.1h1.108a.209.209,0,0,0,.177-.324Z" fill="#404040"/>
        </g>
      </g>
    </g>
  </g>
</svg>
