<?xml version="1.0" encoding="UTF-8"?><svg id="uuid-ba57bbbb-9673-4302-808c-2cccf08fb43b" xmlns="http://www.w3.org/2000/svg" viewBox="0 0 28 28"><defs><style>.uuid-4d268517-8ad7-4db4-9dd8-976efe827771{fill:#404040;}</style></defs><path class="uuid-4d268517-8ad7-4db4-9dd8-976efe827771" d="M17.1,.4c-1.3,0-2.6,.3-3.7,1.1-1.2,.9-1.9,2.2-2.2,3.6-.1,.6-.1,1.3-.2,1.9,0,1,0,2,0,2.9v.4H6.9v4.9h4.2v12.3h5.1V15.3h4.1c.2-1.6,.4-3.2,.6-4.9-.3,0-.6,0-.9,0-1.2,0-3.9,0-3.9,0,0,0,0-2.4,0-3.5,0-1.4,.9-1.9,2-1.9,.8,0,1.7,0,2.5,0h.3V.6c-.4,0-.9-.1-1.4-.1-.9,0-1.7,0-2.6,0Z"/></svg>