<?xml version="1.0" encoding="UTF-8"?><svg id="uuid-9a6fc71a-2137-4120-ac31-eda1f644effb" xmlns="http://www.w3.org/2000/svg" viewBox="0 0 28 28"><defs><style>.uuid-b09cc7b0-bcda-4c27-92ad-78818683a877{fill:#fff;}</style></defs><path class="uuid-b09cc7b0-bcda-4c27-92ad-78818683a877" d="M13.9,4c-5,0-9.1,4.1-9.1,9.1s4.1,9.1,9.1,9.1,9.1-4.1,9.1-9.1S19,4,13.9,4Zm4.2,3.8l-2.3,4.5h1.7c.3,0,.5,.2,.5,.5v.9c0,.3-.2,.5-.5,.5h-2.6v1h2.6c.3,0,.5,.2,.5,.5v.9c0,.3-.2,.5-.5,.5h-2.6v1.8c0,.3-.2,.5-.5,.5h-1.4c-.3,0-.5-.2-.5-.5v-1.8h-2.6c-.3,0-.5-.2-.5-.5v-.9c0-.3,.2-.5,.5-.5h2.6v-1h-2.6c-.3,0-.5-.2-.5-.5v-.9c0-.3,.2-.5,.5-.5h1.7l-2.2-4.5c0-.1,0-.3,0-.5,0-.1,.2-.2,.4-.2h1.5c.2,0,.3,.1,.4,.3l1.5,3.2c.2,.4,.4,.8,.4,1.2,.1-.4,.3-.8,.4-1.2l1.6-3.2c0-.2,.2-.3,.4-.3h1.5c.2,0,.3,0,.4,.2,0,.1,0,.3,0,.5Z"/></svg>