<?xml version="1.0" encoding="UTF-8"?><svg id="uuid-859d5a3a-1b2f-4906-8f06-c58fab4b7d4c" xmlns="http://www.w3.org/2000/svg" viewBox="0 0 28 28"><defs><style>.uuid-3ffd4546-f5cd-4f0c-8fae-18ecd24acb12{fill:#404040;}</style></defs><path class="uuid-3ffd4546-f5cd-4f0c-8fae-18ecd24acb12" d="M21.6,3.8H6.9c-1.5,0-2.8,1.2-2.8,2.8v14.7c0,1.5,1.2,2.8,2.8,2.8h14.7c1.5,0,2.8-1.2,2.8-2.8V6.6c0-1.5-1.2-2.8-2.8-2.8Zm-14.7,1.8h14.7c.5,0,.9,.4,.9,.9v14.7c0,.5-.4,.9-.9,.9H6.9c-.5,0-.9-.4-.9-.9V6.6c0-.5,.4-.9,.9-.9Z"/><rect class="uuid-3ffd4546-f5cd-4f0c-8fae-18ecd24acb12" x="12.9" y="8" width="2.7" height="8"/><path class="uuid-3ffd4546-f5cd-4f0c-8fae-18ecd24acb12" d="M14.3,17.3c-.7,0-1.4,.6-1.4,1.3h0c0,.7,.6,1.3,1.4,1.3h0c.7,0,1.4-.6,1.4-1.3h0c0-.7-.6-1.3-1.4-1.3h0Z"/></svg>