<?xml version="1.0" encoding="UTF-8"?><svg id="uuid-4b4be52f-1554-437b-a538-d91aa5039c36" xmlns="http://www.w3.org/2000/svg" viewBox="0 0 40 40"><defs><style>.uuid-852fbc31-6ef0-4b1a-a280-3e138b189e31{fill:#fff;}</style></defs><path class="uuid-852fbc31-6ef0-4b1a-a280-3e138b189e31" d="M20.2,4.5c-8.5,0-15.5,5.6-15.5,12.6s5.5,11.4,13,12.4c.5,.1,1.2,.3,1.4,.8,.2,.4,.1,1,0,1.4,0,0-.2,1.1-.2,1.3,0,.4-.3,1.5,1.3,.8,1.7-.7,8.9-5.3,12.2-9h0c2.2-2.5,3.3-5,3.3-7.7,0-6.9-7-12.6-15.5-12.6Zm-5.5,16.3c0,.2-.1,.3-.3,.3h-4.3c0,0-.2,0-.2,0,0,0,0,0,0,0,0,0,0,0,0,0,0,0,0-.1,0-.2h0v-6.8c0-.2,.1-.3,.3-.3h1.1c.2,0,.3,.1,.3,.3v5.4h3c.2,0,.3,.1,.3,.3v1.1Zm2.6,0c0,.2-.1,.3-.3,.3h-1.1c-.2,0-.3-.1-.3-.3v-6.8c0-.2,.1-.3,.3-.3h1.1c.2,0,.3,.1,.3,.3v6.8Zm7.5,0c0,.2-.1,.3-.3,.3h-1.1s0,0,0,0c0,0,0,0,0,0,0,0,0,0,0,0,0,0,0,0,0,0,0,0,0,0,0,0,0,0,0,0,0,0,0,0,0,0,0,0,0,0,0,0,0,0,0,0,0,0,0,0,0,0,0,0,0,0l-3.1-4.2v4c0,.2-.1,.3-.3,.3h-1.1c-.2,0-.3-.1-.3-.3v-6.8c0-.2,.1-.3,.3-.3h1.1s0,0,0,0c0,0,0,0,0,0,0,0,0,0,0,0,0,0,0,0,0,0h0s0,0,0,0c0,0,0,0,0,0,0,0,0,0,0,0,0,0,0,0,0,0,0,0,0,0,0,0,0,0,0,0,0,0,0,0,0,0,0,0,0,0,0,0,0,0,0,0,0,0,0,0,0,0,0,0,0,0,0,0,0,0,0,0,0,0,0,0,0,0,0,0,0,0,0,0,0,0,0,0,0,0l3.1,4.2v-4c0-.2,.1-.3,.3-.3h1.1c.2,0,.3,.1,.3,.3v6.8Zm6-5.7c0,.2-.1,.3-.3,.3h-3v1.1h3c.2,0,.3,.1,.3,.3v1.1c0,.2-.1,.3-.3,.3h-3v1.1h3c.2,0,.3,.1,.3,.3v1.1c0,.2-.1,.3-.3,.3h-4.3c0,0-.2,0-.2,0,0,0,0,0,0,0,0,0,0,0,0,0,0,0,0-.1,0-.2h0v-6.8h0c0,0,0-.2,0-.2,0,0,0,0,0,0,0,0,0,0,0,0,0,0,.1,0,.2,0h4.3c.2,0,.3,.1,.3,.3v1.1Z"/></svg>