<svg xmlns="http://www.w3.org/2000/svg" width="24.288" height="23.142" viewBox="0 0 24.288 23.142">
  <g id="グループ_69" data-name="グループ 69" transform="translate(-8913.587 -1627.79)">
    <g id="グループ_68" data-name="グループ 68">
      <path id="パス_23" data-name="パス 23" d="M8925.731,1627.79c-6.7,0-12.145,4.421-12.145,9.855,0,4.872,4.321,8.952,10.156,9.723.4.086.934.261,1.07.6a2.5,2.5,0,0,1,.039,1.1s-.143.857-.174,1.04c-.053.307-.244,1.2,1.053.654a39.239,39.239,0,0,0,9.542-7.05h0a8.771,8.771,0,0,0,2.6-6.064C8937.875,1632.211,8932.428,1627.79,8925.731,1627.79Zm-4.284,12.756a.237.237,0,0,1-.236.237h-3.4a.236.236,0,0,1-.163-.066l0,0,0,0a.233.233,0,0,1-.065-.163h0v-5.29a.236.236,0,0,1,.236-.237h.853a.237.237,0,0,1,.236.237v4.2h2.314a.237.237,0,0,1,.236.236Zm2.053,0a.237.237,0,0,1-.236.236h-.852a.237.237,0,0,1-.237-.236v-5.291a.237.237,0,0,1,.237-.237h.852a.237.237,0,0,1,.236.237Zm5.864,0a.237.237,0,0,1-.237.236h-.852a.239.239,0,0,1-.061-.008h0l-.016-.005-.007,0-.012,0-.012-.006-.006,0-.016-.009,0,0a.235.235,0,0,1-.06-.058l-2.427-3.279v3.143a.237.237,0,0,1-.237.236h-.852a.236.236,0,0,1-.236-.236v-5.291a.236.236,0,0,1,.236-.237h.871l.014,0h.01l.013,0,.01,0,.014,0,.007,0,.014.005.008,0,.013.007.007,0,.012.009.008.005.012.01,0,0,.014.015h0l.02.024,2.425,3.275v-3.143a.236.236,0,0,1,.236-.237h.852a.237.237,0,0,1,.237.237Zm4.7-4.44a.236.236,0,0,1-.236.237h-2.314v.894h2.314a.237.237,0,0,1,.236.237v.852a.236.236,0,0,1-.236.237h-2.314v.894h2.314a.236.236,0,0,1,.236.237v.851a.236.236,0,0,1-.236.237h-3.4a.237.237,0,0,1-.164-.066l0,0,0,0a.233.233,0,0,1-.065-.163h0v-5.29h0a.238.238,0,0,1,.064-.164l0,0,0,0a.237.237,0,0,1,.164-.067h3.4a.236.236,0,0,1,.236.237Z" fill="#fff"/>
    </g>
  </g>
</svg>
