<?xml version="1.0" encoding="UTF-8"?><svg id="uuid-0e5b8f3c-0a24-4817-a80f-45541b750e5f" xmlns="http://www.w3.org/2000/svg" viewBox="0 0 28 28"><defs><style>.uuid-2f688483-3030-4bed-a6bd-2226de41ef0d{fill:#404040;}</style></defs><path class="uuid-2f688483-3030-4bed-a6bd-2226de41ef0d" d="M14,2.4C7.3,2.4,1.9,6.8,1.9,12.3s4.3,9,10.2,9.7c.4,0,.9,.3,1.1,.6,.1,.3,0,.8,0,1.1,0,0-.1,.9-.2,1,0,.3-.2,1.2,1.1,.7,1.3-.5,7-4.1,9.5-7.1h0c1.8-1.9,2.6-3.9,2.6-6.1,0-5.4-5.4-9.9-12.1-9.9Zm-4.3,12.8c0,.1-.1,.2-.2,.2h-3.4c0,0-.1,0-.2,0,0,0,0,0,0,0,0,0,0,0,0,0,0,0,0,0,0-.2h0v-5.3c0-.1,.1-.2,.2-.2h.9c.1,0,.2,.1,.2,.2v4.2h2.3c.1,0,.2,.1,.2,.2v.9Zm2.1,0c0,.1-.1,.2-.2,.2h-.9c-.1,0-.2-.1-.2-.2v-5.3c0-.1,.1-.2,.2-.2h.9c.1,0,.2,.1,.2,.2v5.3Zm5.9,0c0,.1-.1,.2-.2,.2h-.9s0,0,0,0c0,0,0,0,0,0,0,0,0,0,0,0,0,0,0,0,0,0,0,0,0,0,0,0,0,0,0,0,0,0,0,0,0,0,0,0,0,0,0,0,0,0,0,0,0,0,0,0,0,0,0,0,0,0l-2.4-3.3v3.1c0,.1-.1,.2-.2,.2h-.9c-.1,0-.2-.1-.2-.2v-5.3c0-.1,.1-.2,.2-.2h.9s0,0,0,0c0,0,0,0,0,0,0,0,0,0,0,0,0,0,0,0,0,0h0s0,0,0,0c0,0,0,0,0,0,0,0,0,0,0,0,0,0,0,0,0,0,0,0,0,0,0,0,0,0,0,0,0,0,0,0,0,0,0,0,0,0,0,0,0,0,0,0,0,0,0,0,0,0,0,0,0,0,0,0,0,0,0,0,0,0,0,0,0,0,0,0,0,0,0,0,0,0,0,0,0,0l2.4,3.3v-3.1c0-.1,.1-.2,.2-.2h.9c.1,0,.2,.1,.2,.2v5.3Zm4.7-4.4c0,.1-.1,.2-.2,.2h-2.3v.9h2.3c.1,0,.2,.1,.2,.2v.9c0,.1-.1,.2-.2,.2h-2.3v.9h2.3c.1,0,.2,.1,.2,.2v.9c0,.1-.1,.2-.2,.2h-3.4c0,0-.1,0-.2,0,0,0,0,0,0,0,0,0,0,0,0,0,0,0,0,0,0-.2h0v-5.3h0c0,0,0-.1,0-.2,0,0,0,0,0,0,0,0,0,0,0,0,0,0,.1,0,.2,0h3.4c.1,0,.2,.1,.2,.2v.9Z"/></svg>