<svg xmlns="http://www.w3.org/2000/svg" width="24.016" height="16.963" viewBox="0 0 24.016 16.963">
  <g id="グループ_71" data-name="グループ 71" transform="translate(-9099.724 -1630.88)">
    <path id="パス_25" data-name="パス 25" d="M9121.307,1630.88h-19.15a2.435,2.435,0,0,0-2.433,2.432v12.1a2.435,2.435,0,0,0,2.433,2.432h19.15a2.435,2.435,0,0,0,2.433-2.432v-12.1A2.435,2.435,0,0,0,9121.307,1630.88Zm-.583,1.762-8.968,8.967-8.967-8.967Zm1.254,12.769a.672.672,0,0,1-.671.671h-19.15a.672.672,0,0,1-.671-.671v-11.583l10.271,10.271,10.222-10.222Z" fill="#fff"/>
  </g>
</svg>
