<?xml version="1.0" encoding="UTF-8"?><svg id="uuid-b57044b2-829f-45fe-8108-83e3d9932a0f" xmlns="http://www.w3.org/2000/svg" viewBox="0 0 60 60"><defs><style>.uuid-b44e6783-95dd-4493-a81e-c940c4bcbe2f{fill:#464646;}.uuid-530ac0c8-b4c9-466c-89e1-ef7186fa46dd{fill:#b4f000;}.uuid-048b66d7-ba75-4910-b752-930bd3a3dced{fill:#193296;}</style></defs><circle class="uuid-530ac0c8-b4c9-466c-89e1-ef7186fa46dd" cx="30" cy="30" r="30"/><g><g><path class="uuid-b44e6783-95dd-4493-a81e-c940c4bcbe2f" d="M16,36.8c0-.7-.2-1.2-.7-1.6-.4-.3-1-.5-1.8-.5h-1.9v6.5h1.6v-2.3h.5c.7,0,1.3-.2,1.7-.5,.4-.4,.6-.9,.6-1.6Zm-2.8-.8h0c.4,0,.7,0,.8,.2,.2,0,.2,.3,.2,.6s0,.5-.2,.6c-.2,.1-.4,.2-.8,.2h-.1v-1.6Z"/><path class="uuid-b44e6783-95dd-4493-a81e-c940c4bcbe2f" d="M18.1,34.5l-2.7,6.6h1.7l.6-1.3h2.1l.5,1.3h1.7l-2.7-6.6h-1.2Zm1.2,4h-1.2l.6-1.7,.6,1.7Z"/><path class="uuid-b44e6783-95dd-4493-a81e-c940c4bcbe2f" d="M26.4,37.9c.3-.4,.4-.8,.4-1.2,0-.7-.2-1.2-.7-1.5-.4-.3-1-.5-1.7-.5h-1.9v6.5h1.6v-2.2l1.4,2.2h2l-1.9-2.7c.4-.1,.6-.3,.9-.6Zm-2.3-1.9h0c.4,0,.6,0,.8,.2,.2,0,.2,.3,.2,.6s0,.5-.2,.6c-.2,.1-.5,.2-.8,.2h0v-1.6Z"/><polygon class="uuid-b44e6783-95dd-4493-a81e-c940c4bcbe2f" points="33.5 34.7 31.5 34.7 29.6 37 29.6 34.7 28 34.7 28 41.2 29.6 41.2 29.6 38.7 31.5 41.2 33.6 41.2 30.8 37.7 33.5 34.7"/><rect class="uuid-b44e6783-95dd-4493-a81e-c940c4bcbe2f" x="34.2" y="34.7" width="1.6" height="6.5"/><polygon class="uuid-b44e6783-95dd-4493-a81e-c940c4bcbe2f" points="41.5 38.6 38.2 34.5 37 34.5 37 41.2 38.6 41.2 38.6 37.2 41.9 41.3 43.1 41.3 43.1 34.7 41.5 34.7 41.5 38.6"/><path class="uuid-b44e6783-95dd-4493-a81e-c940c4bcbe2f" d="M47.1,37.6v1.3h1.4c0,.1,0,.2-.1,.3,0,.2-.2,.3-.3,.4-.1,.1-.3,.2-.4,.3-.2,0-.3,0-.5,0-.3,0-.5,0-.7-.2-.2-.1-.4-.3-.5-.5-.1-.2-.3-.4-.3-.7,0-.2-.1-.5-.1-.7s0-.5,.1-.7c0-.2,.2-.5,.3-.7,.1-.2,.3-.4,.5-.5,.2-.1,.5-.2,.7-.2s.6,0,.8,.2c.2,.2,.4,.4,.6,.6h0c0,.1,1.4-.6,1.4-.6h0c-.3-.6-.7-1-1.1-1.3-.5-.3-1-.4-1.6-.4s-1,0-1.4,.3c-.4,.2-.8,.4-1.1,.7-.3,.3-.5,.7-.7,1.1-.2,.4-.2,.9-.2,1.3s0,.9,.2,1.3c.2,.4,.4,.8,.7,1.1,.3,.3,.7,.6,1.1,.7,.4,.2,.9,.3,1.4,.3s1,0,1.4-.3c.4-.2,.7-.4,1-.8,.3-.3,.5-.7,.6-1.1,.1-.4,.2-.8,.2-1.3v-.3h-3.2Z"/></g><g><path class="uuid-048b66d7-ba75-4910-b752-930bd3a3dced" d="M20.5,19.8c-1-.5-2-.8-3.1-.7-.5,0-1.2,.4-1.4,.8-.1,.3,0,.7,.3,1s.6,.4,.9,.5c1.3,.4,2.8,.6,3.9,1.4,1.4,1,1.9,2.9,1.5,4.6-.4,1.6-1.7,3-3.3,3.7-1.5,.7-3.3,.8-5,.5-1.7-.3-3.2-.9-4.8-1.7,.6-1.2,1.3-2.4,1.9-3.5,1.5,1.1,3.1,1.7,4.7,1.5,.6,0,1.2-.4,1.3-1,.1-.6-.5-1.2-1.1-1.4-1.3-.5-2.9-.5-4-1.3-1.5-1-1.8-2.6-1.5-4.2,0-.4,.2-.7,.4-1.1,.4-.8,1-1.5,1.7-1.9,2.9-1.9,6.6-1.1,7.5-.9s1.3,.4,1.8,.6c-.5,.9-1.4,2.3-1.9,3.2Z"/><g><path class="uuid-048b66d7-ba75-4910-b752-930bd3a3dced" d="M39.5,17.5v.8c.8-1.6,2.7-2.5,4.6-2.7,1.1,0,2.1,.2,2.9,.5,.8,.3,1.4,.8,1.9,1.3,.5,.6,.8,1.2,1,2,.2,.8,.3,1.6,.3,2.5v9.2h-5v-7.1c0-.7,0-1.2,0-1.7,0-1.3-1-2.7-2.6-2.7s-1.2,.1-1.6,.4c-.4,.3-.7,.7-.9,1.1s-.3,1.1-.4,1.6c0,.5,0,1,0,1.6v6.6h-5v-15h5v1.4Z"/><path class="uuid-048b66d7-ba75-4910-b752-930bd3a3dced" d="M34.6,29.8v-.8c-.8,1.6-2.7,2.5-4.6,2.7-1.1,0-2.1-.2-2.9-.5-.8-.3-1.4-.8-1.9-1.3-.5-.6-.8-1.2-1-2-.2-.8-.3-1.6-.3-2.5v-9.2h5v7.1c0,.7,0,1.2,0,1.7,0,1.3,1,2.7,2.6,2.7,.7,0,1.2-.1,1.6-.4,.4-.3,.7-.7,.9-1.1s.3-1.1,.4-1.6c0-.5,0-1,0-1.6v-6.6h5v15h-5v-1.4Z"/></g></g></g></svg>