<?xml version="1.0" encoding="UTF-8"?><svg id="uuid-6652b137-00a6-4567-b457-7176b09a132a" xmlns="http://www.w3.org/2000/svg" viewBox="0 0 28 28"><defs><style>.uuid-cfd4f8d5-a342-4d1c-ad8a-9c456f134717{fill:#fff;}</style></defs><g><path class="uuid-cfd4f8d5-a342-4d1c-ad8a-9c456f134717" d="M17.3,23.8H4.8c-.4,0-.7-.3-.7-.7V5.2c0-.4,.3-.7,.7-.7H23.1c.4,0,.7,.3,.7,.7v11.5c0,.4-.3,.7-.7,.7s-.7-.3-.7-.7V5.9H5.5V22.4h11.8c.4,0,.7,.3,.7,.7s-.3,.7-.7,.7Z"/><path class="uuid-cfd4f8d5-a342-4d1c-ad8a-9c456f134717" d="M23.1,8.9H4.8c-.4,0-.7-.3-.7-.7s.3-.7,.7-.7H23.1c.4,0,.7,.3,.7,.7s-.3,.7-.7,.7Z"/></g><g><rect class="uuid-cfd4f8d5-a342-4d1c-ad8a-9c456f134717" x="6.9" y="10.6" width="2.5" height="2.5"/><rect class="uuid-cfd4f8d5-a342-4d1c-ad8a-9c456f134717" x="10.8" y="10.6" width="2.5" height="2.5"/><rect class="uuid-cfd4f8d5-a342-4d1c-ad8a-9c456f134717" x="14.7" y="10.6" width="2.5" height="2.5"/><rect class="uuid-cfd4f8d5-a342-4d1c-ad8a-9c456f134717" x="18.6" y="10.6" width="2.5" height="2.5"/></g><g><rect class="uuid-cfd4f8d5-a342-4d1c-ad8a-9c456f134717" x="6.9" y="14.5" width="2.5" height="2.5"/><rect class="uuid-cfd4f8d5-a342-4d1c-ad8a-9c456f134717" x="10.8" y="14.5" width="2.5" height="2.5"/><rect class="uuid-cfd4f8d5-a342-4d1c-ad8a-9c456f134717" x="14.7" y="14.5" width="2.5" height="2.5"/></g><g><rect class="uuid-cfd4f8d5-a342-4d1c-ad8a-9c456f134717" x="6.9" y="18.4" width="2.5" height="2.5"/><rect class="uuid-cfd4f8d5-a342-4d1c-ad8a-9c456f134717" x="10.8" y="18.4" width="2.5" height="2.5"/></g><path class="uuid-cfd4f8d5-a342-4d1c-ad8a-9c456f134717" d="M8.3,5.2v-1.3c0-.9,.7-1.6,1.6-1.6s1.6,.7,1.6,1.6v1.3"/><path class="uuid-cfd4f8d5-a342-4d1c-ad8a-9c456f134717" d="M19.6,5.2v-1.3c0-.9-.7-1.6-1.6-1.6s-1.6,.7-1.6,1.6v1.3"/><path class="uuid-cfd4f8d5-a342-4d1c-ad8a-9c456f134717" d="M20.6,25.3c-2.8,0-5-2.3-5-5s2.3-5,5-5,5,2.3,5,5-2.3,5-5,5Zm0-8.7c-2,0-3.6,1.6-3.6,3.6s1.6,3.6,3.6,3.6,3.6-1.6,3.6-3.6-1.6-3.6-3.6-3.6Z"/><path class="uuid-cfd4f8d5-a342-4d1c-ad8a-9c456f134717" d="M22.7,21h-2.1c-.4,0-.7-.3-.7-.7v-2.6c0-.4,.3-.7,.7-.7s.7,.3,.7,.7v1.9h1.5c.4,0,.7,.3,.7,.7s-.3,.7-.7,.7Z"/></svg>