<?xml version="1.0" encoding="UTF-8"?><svg id="uuid-aa72c27e-c16d-429a-8dae-e85f6b4eb7a9" xmlns="http://www.w3.org/2000/svg" viewBox="0 0 28 28"><defs><style>.uuid-465ea727-0ae4-499d-8db2-ade622e1a131{fill:#fff;}</style></defs><path class="uuid-465ea727-0ae4-499d-8db2-ade622e1a131" d="M24,19.6l-5.1-5.1s0,0-.1-.1c.3-.5,.6-1,.8-1.6,.4-1,.6-2,.6-3.1s-.2-2.1-.6-3.1c-.4-1-1-2-1.8-2.7-.8-.8-1.7-1.4-2.7-1.8-1-.4-2-.6-3.1-.6s-2.1,.2-3.1,.6c-1,.4-2,1-2.7,1.8-.8,.8-1.4,1.7-1.8,2.7-.4,1-.6,2-.6,3.1s.2,2.1,.6,3.1c.4,1,1,2,1.8,2.7,.8,.8,1.7,1.4,2.7,1.8,1,.4,2,.6,3.1,.6s2.1-.2,3.1-.6c.3-.1,.7-.3,1-.5,0,0,.1,.2,.2,.3l5.1,5.1c.7,.7,1.9,.7,2.6,0h0c.7-.7,.7-1.9,0-2.6Zm-12.1-4.9c-1.3,0-2.6-.5-3.6-1.5-2-2-2-5.1,0-7.1,.9-.9,2.2-1.5,3.6-1.5s2.6,.5,3.6,1.5,1.5,2.2,1.5,3.6-.5,2.6-1.5,3.6c-.9,.9-2.2,1.5-3.6,1.5Z"/></svg>