<svg xmlns="http://www.w3.org/2000/svg" width="22" height="28.693" viewBox="0 0 22 28.693">
  <g id="グループ_1332" data-name="グループ 1332" transform="translate(-12175 -4688.494)">
    <path id="パス_248" data-name="パス 248" d="M12176.967,4689.71c-1.972,1.279-2.358,5.275-1.615,8.533a29.451,29.451,0,0,0,3.892,9.144,30.564,30.564,0,0,0,6.762,7.281c2.671,2.008,6.479,3.284,8.449,2.006a10,10,0,0,0,2.546-2.73l-1.059-1.633-2.913-4.491c-.217-.334-1.573-.029-2.264.362a6.574,6.574,0,0,0-1.787,1.941c-.637.368-1.171,0-2.286-.513-1.372-.631-2.914-2.592-4.143-4.368-1.121-1.845-2.282-4.053-2.3-5.563-.014-1.228-.131-1.865.465-2.3a6.567,6.567,0,0,0,2.5-.839c.638-.47,1.47-1.585,1.253-1.919l-2.912-4.491-1.059-1.633A10.01,10.01,0,0,0,12176.967,4689.71Z" fill="#404040"/>
  </g>
</svg>
