<?xml version="1.0" encoding="UTF-8"?><svg id="uuid-4b62896c-acc5-4201-9e07-5c92520c7190" xmlns="http://www.w3.org/2000/svg" viewBox="0 0 28 28"><defs><style>.uuid-3cd715c4-ae7f-4b24-adcd-b651c38d033d{fill:#404040;}</style></defs><path class="uuid-3cd715c4-ae7f-4b24-adcd-b651c38d033d" d="M23.8,6.9c1.1-.7,1.8-1.6,2.2-2.8,0,0,0,0,0,0,0,0,0,0,0,0-1,.5-2,.9-3,1.2-.1,0-.2,0-.3,0-1.3-1.2-2.8-1.7-4.6-1.5-1.5,.2-2.7,1.1-3.5,2.4-.7,1-.9,2.2-.8,3.4,0,.2,0,.4,0,.6-4.4-.3-7.9-2.1-10.8-5.4-.7,1.2-.9,2.5-.6,3.8,.3,1.3,1,2.4,2.1,3.2-.8,0-1.6-.2-2.3-.6,0,1,.2,1.9,.8,2.8,.8,1.3,1.9,2.1,3.4,2.4,0,0,0,0,0,0-.7,.2-1.5,.2-2.2,0,.4,1.6,2.1,3.5,4.9,3.6-.8,.6-1.6,1.1-2.5,1.4-1.7,.7-3.4,.9-5.2,.7,0,0,0,0,.1,0,2.6,1.6,5.3,2.3,8.3,2.2,1,0,1.9-.1,2.9-.3,2.8-.6,5.2-1.9,7.2-4,1.2-1.2,2.1-2.6,2.8-4.1,.7-1.5,1.1-3,1.3-4.6,0-.8,.1-1.5,0-2.3,0,0,0-.1,0-.2,.7-.5,1.3-1.1,1.9-1.8,.2-.3,.4-.5,.6-.8,0,0,0,0,0,0-.9,.4-1.9,.7-2.9,.8Z"/></svg>