<svg xmlns="http://www.w3.org/2000/svg" width="33.394" height="27.175" viewBox="0 0 33.394 27.175">
  <path id="パス_119" data-name="パス 119" d="M1944.226,7586.957a7.049,7.049,0,0,0,2.938-3.735.136.136,0,0,0-.045,0,.735.735,0,0,0-.092.046,13.869,13.869,0,0,1-3.991,1.537.351.351,0,0,1-.367-.11,6.678,6.678,0,0,0-6.005-1.912,6.582,6.582,0,0,0-4.655,3.1,6.673,6.673,0,0,0-1,4.489c.027.238.07.478.109.747a19.615,19.615,0,0,1-14.155-7.169,6.926,6.926,0,0,0,2.091,9.133,6.728,6.728,0,0,1-3.054-.834,6.653,6.653,0,0,0,1.005,3.651,6.843,6.843,0,0,0,4.456,3.148.461.461,0,0,1-.1.046,6.851,6.851,0,0,1-2.941.089,6.883,6.883,0,0,0,6.385,4.762,13.535,13.535,0,0,1-3.264,1.9,13.852,13.852,0,0,1-6.863.949c.076.05.118.082.162.107a19.4,19.4,0,0,0,10.979,2.945,20.4,20.4,0,0,0,3.823-.456,18.32,18.32,0,0,0,9.428-5.252,19.757,19.757,0,0,0,3.709-5.411,20.166,20.166,0,0,0,1.769-6.109,19.012,19.012,0,0,0,.128-3.044.235.235,0,0,1,.114-.22,13.431,13.431,0,0,0,2.493-2.37c.274-.333.526-.683.789-1.03a.273.273,0,0,1-.027-.029A13.179,13.179,0,0,1,1944.226,7586.957Z" transform="translate(-1914.68 -7582.682)" fill="#404040"/>
</svg>
