<svg xmlns="http://www.w3.org/2000/svg" width="25.369" height="20.645" viewBox="0 0 25.369 20.645">
  <path id="パス_24" data-name="パス 24" d="M8997.493,1632.287a5.351,5.351,0,0,0,2.231-2.838c-.02,0-.03,0-.033,0a.51.51,0,0,0-.07.035,10.559,10.559,0,0,1-3.032,1.167.269.269,0,0,1-.279-.083,5.07,5.07,0,0,0-4.562-1.453,5,5,0,0,0-3.536,2.355,5.06,5.06,0,0,0-.76,3.409c.021.182.053.364.083.568a14.9,14.9,0,0,1-10.753-5.446,5.179,5.179,0,0,0-.559,3.779,5.233,5.233,0,0,0,2.146,3.16,5.129,5.129,0,0,1-2.321-.634,5.051,5.051,0,0,0,.765,2.774,5.2,5.2,0,0,0,3.385,2.391.425.425,0,0,1-.074.035,5.215,5.215,0,0,1-2.234.068,5.229,5.229,0,0,0,4.851,3.617,10.32,10.32,0,0,1-2.479,1.444,10.524,10.524,0,0,1-5.214.721c.057.037.09.062.123.081a14.733,14.733,0,0,0,8.341,2.237,15.483,15.483,0,0,0,2.9-.346,13.92,13.92,0,0,0,7.163-3.99,15.068,15.068,0,0,0,2.818-4.111,15.387,15.387,0,0,0,1.343-4.641,14.3,14.3,0,0,0,.1-2.312.178.178,0,0,1,.087-.167,10.254,10.254,0,0,0,1.895-1.8c.208-.253.4-.519.6-.783l-.02-.022A10.051,10.051,0,0,1,8997.493,1632.287Z" transform="translate(-8975.047 -1629.039)" fill="#fff"/>
</svg>
