<svg xmlns="http://www.w3.org/2000/svg" width="19.16" height="18.858" viewBox="0 0 19.16 18.858">
  <g id="グループ_1998" data-name="グループ 1998" transform="translate(-6925.843 -62.581)">
    <path id="パス_374" data-name="パス 374" d="M6943.37,67.693h-13.253a1.635,1.635,0,0,0-1.634,1.633v7.389a1.635,1.635,0,0,0,1.634,1.633h3.683l-.806,2.258a.626.626,0,0,0,.222.715.618.618,0,0,0,.365.118.629.629,0,0,0,.386-.132l3.77-2.959h5.633A1.634,1.634,0,0,0,6945,76.715V69.326A1.634,1.634,0,0,0,6943.37,67.693Zm0,9.022h-6.2l-1.467,1.151.411-1.151h-6V69.326h13.253Z" fill="#404040"/>
    <g id="グループ_1997" data-name="グループ 1997">
      <path id="パス_375" data-name="パス 375" d="M6927.1,62.581h13.254a1.262,1.262,0,0,1,1.261,1.261v7.389a1.263,1.263,0,0,1-1.261,1.262h-4.21l.983,2.754a.252.252,0,0,1-.091.289.249.249,0,0,1-.147.048.254.254,0,0,1-.156-.054l-3.871-3.037H6927.1a1.263,1.263,0,0,1-1.261-1.262V63.842A1.263,1.263,0,0,1,6927.1,62.581Z" fill="#404040"/>
    </g>
  </g>
</svg>
