<?xml version="1.0" encoding="UTF-8"?><svg id="uuid-892986a0-264c-471b-bb77-eebf6964fd7d" xmlns="http://www.w3.org/2000/svg" viewBox="0 0 28 28"><defs><style>.uuid-10949063-7669-4a0b-8e7d-eac7abf0ac11{fill:#404040;}</style></defs><path class="uuid-10949063-7669-4a0b-8e7d-eac7abf0ac11" d="M23.5,8.9H8c-1.1,0-1.9,.9-1.9,1.9v8.6c0,1.1,.9,1.9,1.9,1.9h4.3l-.9,2.6c-.1,.3,0,.6,.3,.8,.1,0,.3,.1,.4,.1s.3,0,.4-.2l4.4-3.5h6.6c1.1,0,1.9-.9,1.9-1.9V10.8c0-1.1-.9-1.9-1.9-1.9Zm0,10.5h-7.2l-1.7,1.3,.5-1.3H8V10.8h15.5v8.6Z"/><path class="uuid-10949063-7669-4a0b-8e7d-eac7abf0ac11" d="M4.5,3h15.5c.8,0,1.5,.7,1.5,1.5V13.1c0,.8-.7,1.5-1.5,1.5h-4.9s1.1,3.2,1.1,3.2c0,.1,0,.3-.1,.3,0,0-.1,0-.2,0s-.1,0-.2,0l-4.5-3.5H4.5c-.8,0-1.5-.7-1.5-1.5V4.4c0-.8,.7-1.5,1.5-1.5Z"/></svg>