<svg xmlns="http://www.w3.org/2000/svg" width="21.03" height="18.103" viewBox="0 0 21.03 18.103">
  <g id="グループ_313" data-name="グループ 313" transform="translate(-5254.448 -120.118)">
    <path id="パス_41" data-name="パス 41" d="M5256.051,137.3a.917.917,0,0,0,.917.917h1.743a.916.916,0,0,0,.917-.917v-2.131h-3.577Z" fill="#fff"/>
    <path id="パス_42" data-name="パス 42" d="M5270.3,137.3a.916.916,0,0,0,.917.917h1.742a.917.917,0,0,0,.917-.917v-2.131H5270.3Z" fill="#fff"/>
    <path id="パス_43" data-name="パス 43" d="M5273.733,126.887l-.394-4.217a2.811,2.811,0,0,0-2.754-2.552h-11.244a2.81,2.81,0,0,0-2.753,2.552l-.4,4.217a2.233,2.233,0,0,0-1.745,2.18v4.9a.639.639,0,0,0,.639.639h19.752a.639.639,0,0,0,.639-.639v-4.9a2.236,2.236,0,0,0-1.745-2.18m-15.893,4.388a1.434,1.434,0,1,1,1.434-1.434,1.434,1.434,0,0,1-1.434,1.434m-.045-4.442.375-4.015a1.223,1.223,0,0,1,1.171-1.11h11.244a1.222,1.222,0,0,1,1.171,1.11l.375,4.015Zm14.291,4.442a1.434,1.434,0,1,1,1.434-1.434,1.434,1.434,0,0,1-1.434,1.434" fill="#fff"/>
  </g>
</svg>
