<?xml version="1.0" encoding="UTF-8"?><svg id="uuid-a8012086-8522-4edf-882b-63171822edee" xmlns="http://www.w3.org/2000/svg" viewBox="0 0 190 38"><defs><style>.uuid-aeb7b4e4-2f55-45b0-ab6f-85cdc3bc9e93{fill:#404040;}.uuid-1d9d24be-9e12-40a1-85a5-dce4c74445f3{fill:#193296;}</style></defs><g><path class="uuid-aeb7b4e4-2f55-45b0-ab6f-85cdc3bc9e93" d="M110.6,25.5c0-1.7-.5-2.9-1.5-3.7-1-.7-2.4-1.1-4.2-1.1h-4.5v15h3.7v-5.3h1.2c1.7,0,3-.4,3.9-1.2,.9-.8,1.4-2,1.4-3.6Zm-6.5-1.8h.2c.9,0,1.6,.1,2,.4,.4,.2,.5,.7,.5,1.4s-.2,1.2-.5,1.5c-.4,.3-1,.4-1.9,.4h-.3v-3.6Z"/><path class="uuid-aeb7b4e4-2f55-45b0-ab6f-85cdc3bc9e93" d="M115.3,20.3l-6.3,15.3h3.9l1.3-3h4.9l1.2,3h4l-6.2-15.3h-2.8Zm2.7,9.4h-2.7l1.3-3.9,1.4,3.9Z"/><path class="uuid-aeb7b4e4-2f55-45b0-ab6f-85cdc3bc9e93" d="M134.7,28.1c.6-.8,.9-1.8,.9-2.8,0-1.6-.5-2.8-1.5-3.5-1-.7-2.3-1.1-4-1.1h-4.4v15h3.7v-5l3.3,5h4.5l-4.5-6.1c.8-.2,1.5-.7,2-1.4Zm-5.3-4.5h0c.9,0,1.5,.1,1.9,.4,.4,.2,.6,.7,.6,1.4s-.2,1.2-.6,1.4c-.4,.3-1.1,.4-1.9,.4h0v-3.6Z"/><polygon class="uuid-aeb7b4e4-2f55-45b0-ab6f-85cdc3bc9e93" points="151 20.7 146.4 20.7 142 26.1 142 20.7 138.3 20.7 138.3 35.6 142 35.6 142 29.8 146.5 35.6 151.3 35.6 144.8 27.6 151 20.7"/><rect class="uuid-aeb7b4e4-2f55-45b0-ab6f-85cdc3bc9e93" x="152.7" y="20.7" width="3.7" height="15"/><polygon class="uuid-aeb7b4e4-2f55-45b0-ab6f-85cdc3bc9e93" points="169.6 29.7 161.9 20.3 159.2 20.3 159.2 35.6 162.9 35.6 162.9 26.5 170.6 35.9 173.3 35.9 173.3 20.7 169.6 20.7 169.6 29.7"/><path class="uuid-aeb7b4e4-2f55-45b0-ab6f-85cdc3bc9e93" d="M182.6,27.4v3h3.3c0,.2-.1,.5-.2,.7-.2,.4-.4,.7-.7,.9-.3,.3-.6,.5-1,.6-.4,.2-.8,.2-1.2,.2-.6,0-1.2-.1-1.7-.4-.5-.3-.9-.6-1.3-1.1-.3-.5-.6-1-.8-1.5-.2-.6-.3-1.1-.3-1.7s0-1.1,.3-1.7c.2-.6,.4-1.1,.8-1.6,.3-.5,.8-.8,1.3-1.1,.5-.3,1.1-.4,1.7-.4s1.4,.2,1.9,.6c.6,.4,1,.9,1.3,1.5v.3c.1,0,3.5-1.6,3.5-1.6l-.2-.3c-.6-1.1-1.5-2-2.6-2.7-1.1-.6-2.4-.9-3.8-.9s-2.3,.2-3.2,.6c-1,.4-1.8,1-2.5,1.7-.7,.7-1.2,1.6-1.6,2.5-.4,.9-.6,2-.6,3s.2,2,.5,3c.4,.9,.9,1.8,1.6,2.5,.7,.7,1.5,1.3,2.5,1.7,1,.4,2,.6,3.2,.6s2.3-.2,3.2-.6c.9-.4,1.7-1,2.3-1.8,.6-.7,1.1-1.6,1.4-2.5,.3-.9,.4-2,.4-3v-.7h-7.4Z"/></g><g><path class="uuid-1d9d24be-9e12-40a1-85a5-dce4c74445f3" d="M24.2,10.4c-2.2-1.1-4.5-1.7-7-1.5-1.1,.1-2.7,.8-3,1.9-.2,.8,.1,1.6,.7,2.2s1.4,.8,2.1,1.1c3,.9,6.3,1.3,8.8,3.2,3,2.3,4.2,6.5,3.3,10.2s-3.9,6.6-7.3,8.2c-3.4,1.6-7.4,1.8-11.1,1.2-3.7-.6-7.3-2.1-10.7-3.8,1.4-2.6,2.8-5.3,4.2-7.9,3.4,2.6,6.9,3.8,10.5,3.3,1.4-.2,2.7-1,3-2.3,.2-1.4-1.2-2.6-2.5-3.1-2.9-1.1-6.4-1.2-9-2.8-3.4-2.1-3.9-5.8-3.3-9.4,.2-.9,.4-1.6,.8-2.4,.8-1.7,2.2-3.3,3.8-4.3C13.9-.3,22.2,1.4,24.3,1.9c1.6,.4,3,.9,4.1,1.3-1.2,2-3,5.1-4.2,7.1Z"/><g><path class="uuid-1d9d24be-9e12-40a1-85a5-dce4c74445f3" d="M66.9,5.2l.2,1.8c1.6-3.7,5.9-5.7,10.2-6,2.5-.2,4.7,.4,6.4,1.1,1.7,.7,3.1,1.7,4.2,3,1,1.3,1.8,2.8,2.2,4.5,.4,1.7,.7,3.6,.7,5.6v20.5h-11.1v-15.8c0-1.5-.2-2.7-.2-3.7,0-2.8-2.3-6-5.9-6s-2.8,.3-3.7,1c-.9,.7-1.6,1.5-2,2.5s-.7,2.4-.8,3.5c-.1,1.1-.2,2.3-.2,3.7v14.8h-11.1V2.1h11.1v3.1Z"/><path class="uuid-1d9d24be-9e12-40a1-85a5-dce4c74445f3" d="M55.7,32.6l-.2-1.8c-1.6,3.7-5.9,5.7-10.2,6-2.5,.2-4.7-.4-6.4-1.1-1.7-.7-3.1-1.7-4.2-3-1-1.3-1.8-2.8-2.2-4.5-.4-1.7-.7-3.6-.7-5.6V2.1h11.1v15.8c0,1.5,.2,2.7,.2,3.7,0,2.8,2.3,6,5.9,6s2.8-.3,3.7-1c.9-.7,1.6-1.5,2-2.5,.4-1,.7-2.4,.8-3.5,.1-1.1,.2-2.3,.2-3.7V2.1h11.1V35.6h-11.1v-3.1Z"/></g></g></svg>