<?xml version="1.0" encoding="UTF-8"?><svg id="uuid-dde21af1-d72a-46cb-9a47-918e2a8f5f31" xmlns="http://www.w3.org/2000/svg" viewBox="0 0 28 28"><defs><style>.uuid-b7a77694-356a-4dde-bc11-0105454dab91{fill:#fff;}</style></defs><path class="uuid-b7a77694-356a-4dde-bc11-0105454dab91" d="M23.9,7.3H4.4c-.7,0-1.3,.6-1.3,1.3v.6h0v5.7h0v3.4c0,.7,.6,1.3,1.3,1.3h1.3c.3,1,1.2,1.7,2.3,1.7s2-.7,2.3-1.7h8.2c.3,1,1.2,1.7,2.3,1.7s2-.7,2.3-1.7h.7c.7,0,1.3-.6,1.3-1.3V8.6c0-.7-.6-1.3-1.3-1.3ZM5.5,13.5c0,.4-.3,.7-.7,.7h-.9v-4.2h.9c.4,0,.7,.3,.7,.7v2.8Zm9.4,0c0,.4-.3,.7-.7,.7h-4.1c-.4,0-.7-.3-.7-.7v-2.8c0-.4,.3-.7,.7-.7h4.1c.4,0,.7,.3,.7,.7v2.8Zm8,0c0,.4-.3,.7-.7,.7h-4.1c-.4,0-.7-.3-.7-.7v-2.8c0-.4,.3-.7,.7-.7h4.1c.4,0,.7,.3,.7,.7v2.8Z"/></svg>