<?xml version="1.0" encoding="UTF-8"?><svg id="uuid-bbd2c3b3-1eb9-4040-ba35-dac65743e15b" xmlns="http://www.w3.org/2000/svg" viewBox="0 0 28 28"><defs><style>.uuid-c0f6d57c-d97f-4419-8c60-2f526ed03cea{fill:#404040;}</style></defs><path class="uuid-c0f6d57c-d97f-4419-8c60-2f526ed03cea" d="M21.5,3.8H6.8c-1.5,0-2.8,1.2-2.8,2.8v14.7c0,1.5,1.2,2.8,2.8,2.8h14.7c1.5,0,2.8-1.2,2.8-2.8V6.6c0-1.5-1.2-2.8-2.8-2.8Zm-14.7,1.8h14.7c.5,0,.9,.4,.9,.9v14.7c0,.5-.4,.9-.9,.9H6.8c-.5,0-.9-.4-.9-.9V6.6c0-.5,.4-.9,.9-.9Z"/><path class="uuid-c0f6d57c-d97f-4419-8c60-2f526ed03cea" d="M18.6,10.2c0,.6-.2,1.3-.7,1.8-.2,.2-.7,.7-1.7,1.5-.9,.8-1.4,1.2-1.5,1.3-.3,.4-.5,1-.4,1.7h-.7c0-1,0-1.6,0-1.7,0-.6,.2-1.2,.6-1.7,.3-.4,.7-.9,1-1.3,.3-.4,.4-1,.3-1.5s-.3-1.1-.7-1.5c-.4-.4-1-.6-1.6-.5s-.6,.1-.8,.2c-.2,.2-.4,.4-.3,.6s.1,.5,.4,.7c.2,.2,.3,.5,.4,.7,0,.8-.4,1.2-1.4,1.3s-1,0-1.4-.3c-.4-.3-.6-.6-.7-1.1,0-.9,.4-1.6,1.4-2.1,.8-.4,1.8-.6,3-.7,1.1,0,2.2,.1,3.2,.6,1.1,.5,1.7,1.2,1.8,2Z"/><circle class="uuid-c0f6d57c-d97f-4419-8c60-2f526ed03cea" cx="14" cy="18.7" r="1.7"/></svg>