<svg xmlns="http://www.w3.org/2000/svg" width="14.158" height="27.121" viewBox="0 0 14.158 27.121">
  <path id="パス_26" data-name="パス 26" d="M9052.835,1625.806a6.322,6.322,0,0,0-3.651,1.128,5.463,5.463,0,0,0-2.193,3.649,12.414,12.414,0,0,0-.153,1.874c-.023.983,0,1.964,0,2.945v.368h-4.182v4.88h4.156v12.272h5.081v-12.249h4.146c.212-1.626.419-3.233.637-4.906-.334,0-.632,0-.933,0-1.178,0-3.883,0-3.883,0s.012-2.421.041-3.469c.041-1.44.893-1.879,2.046-1.921.84-.027,1.68-.005,2.521-.008h.346V1626c-.446-.045-.917-.11-1.387-.134C9054.562,1625.829,9053.7,1625.785,9052.835,1625.806Z" transform="translate(-9042.652 -1625.801)" fill="#fff"/>
</svg>
