<svg xmlns="http://www.w3.org/2000/svg" width="30.534" height="32.593" viewBox="0 0 30.534 32.593">
  <g id="グループ_1058" data-name="グループ 1058" transform="translate(-421.15 -2783.667)">
    <rect id="長方形_227" data-name="長方形 227" width="3.511" height="3.511" transform="translate(425.097 2795.449)" fill="#fff"/>
    <rect id="長方形_228" data-name="長方形 228" width="3.511" height="3.511" transform="translate(430.657 2795.449)" fill="#fff"/>
    <rect id="長方形_229" data-name="長方形 229" width="3.511" height="3.511" transform="translate(436.217 2795.449)" fill="#fff"/>
    <rect id="長方形_230" data-name="長方形 230" width="3.511" height="3.511" transform="translate(441.777 2795.449)" fill="#fff"/>
    <rect id="長方形_231" data-name="長方形 231" width="3.511" height="3.511" transform="translate(425.097 2800.936)" fill="#fff"/>
    <rect id="長方形_232" data-name="長方形 232" width="3.511" height="3.511" transform="translate(430.657 2800.936)" fill="#fff"/>
    <rect id="長方形_233" data-name="長方形 233" width="3.511" height="3.511" transform="translate(425.097 2806.422)" fill="#fff"/>
    <rect id="長方形_234" data-name="長方形 234" width="3.511" height="3.511" transform="translate(430.657 2806.422)" fill="#fff"/>
    <path id="パス_274" data-name="パス 274" d="M449.112,2803.664v-15.927a.979.979,0,0,0-.979-.98h-5.044v-.866a2.224,2.224,0,1,0-4.448,0v.866h-7.02v-.866a2.224,2.224,0,1,0-4.448,0v.866h-5.044a.979.979,0,0,0-.979.98v25.35a.979.979,0,0,0,.979.979h17.3a7.116,7.116,0,1,0,9.681-10.4Zm-1.958-14.948v2.384H423.108v-2.384Zm-24.046,23.392v-19.05h24.046v9.452a7.062,7.062,0,0,0-7.426,1.41v-2.984h-3.511v3.511h3a7.064,7.064,0,0,0-1.118,7.661Zm21.453,2.193a5.149,5.149,0,0,1-3.869-1.755,1,1,0,0,0-.15-.174,5.16,5.16,0,1,1,4.019,1.929Z" fill="#fff"/>
    <path id="パス_275" data-name="パス 275" d="M447.6,2808.158h-2.058v-2.7a.979.979,0,0,0-1.959,0v3.679a.979.979,0,0,0,.979.979H447.6a.979.979,0,0,0,0-1.958Z" fill="#fff"/>
  </g>
</svg>
