<?xml version="1.0" encoding="UTF-8"?><svg id="uuid-aac4dafb-4666-45ba-99c4-c7b72ef85f6b" xmlns="http://www.w3.org/2000/svg" viewBox="0 0 58 58"><defs><style>.uuid-a9f328fd-30c0-4b0e-ab64-18e666c820c5{fill:#fff;}.uuid-9a25d19e-8ba2-4549-96fe-08a6bec87a96{fill:#32b400;}</style></defs><g id="uuid-fc050941-0751-4ef2-8302-d9eb11d3dcc8"><rect class="uuid-a9f328fd-30c0-4b0e-ab64-18e666c820c5" width="58" height="58" rx="12.6" ry="12.6"/><g id="uuid-6c02db42-7213-4ba7-8bc6-359f4ea5b8ac"><g><path class="uuid-9a25d19e-8ba2-4549-96fe-08a6bec87a96" d="M50,26.4c0-9.4-9.5-17.1-21.1-17.1S7.8,17,7.8,26.4s7.5,15.6,17.7,16.9c.7,.1,1.6,.5,1.9,1,.2,.5,.1,1.4,0,1.9,0,0-.2,1.5-.3,1.8,0,.5-.4,2.1,1.8,1.1,2.3-.9,12.2-7.2,16.6-12.3h0c3.1-3.4,4.5-6.8,4.5-10.5"/><g><path class="uuid-a9f328fd-30c0-4b0e-ab64-18e666c820c5" d="M24.6,21.9h-1.5c-.2,0-.4,.2-.4,.4v9.2c0,.2,.2,.4,.4,.4h1.5c.2,0,.4-.2,.4-.4v-9.2c0-.2-.2-.4-.4-.4"/><path class="uuid-a9f328fd-30c0-4b0e-ab64-18e666c820c5" d="M34.8,21.9h-1.5c-.2,0-.4,.2-.4,.4v5.5l-4.2-5.7s0,0,0,0c0,0,0,0,0,0,0,0,0,0,0,0,0,0,0,0,0,0,0,0,0,0,0,0,0,0,0,0,0,0,0,0,0,0,0,0,0,0,0,0,0,0,0,0,0,0,0,0,0,0,0,0,0,0,0,0,0,0,0,0,0,0,0,0,0,0,0,0,0,0,0,0,0,0,0,0,0,0,0,0,0,0,0,0,0,0,0,0,0,0,0,0,0,0,0,0,0,0,0,0,0,0,0,0,0,0,0,0h-1.5c-.2,0-.4,.2-.4,.4v9.2c0,.2,.2,.4,.4,.4h1.5c.2,0,.4-.2,.4-.4v-5.5l4.2,5.7s0,0,.1,.1c0,0,0,0,0,0,0,0,0,0,0,0,0,0,0,0,0,0,0,0,0,0,0,0,0,0,0,0,0,0,0,0,0,0,0,0,0,0,0,0,0,0,0,0,0,0,0,0,0,0,0,0,.1,0h1.5c.2,0,.4-.2,.4-.4v-9.2c0-.2-.2-.4-.4-.4"/><path class="uuid-a9f328fd-30c0-4b0e-ab64-18e666c820c5" d="M21,29.6h-4v-7.3c0-.2-.2-.4-.4-.4h-1.5c-.2,0-.4,.2-.4,.4v9.2h0c0,.1,0,.2,.1,.3,0,0,0,0,0,0,0,0,0,0,0,0,0,0,.2,.1,.3,.1h5.9c.2,0,.4-.2,.4-.4v-1.5c0-.2-.2-.4-.4-.4"/><path class="uuid-a9f328fd-30c0-4b0e-ab64-18e666c820c5" d="M43,24.2c.2,0,.4-.2,.4-.4v-1.5c0-.2-.2-.4-.4-.4h-5.9c-.1,0-.2,0-.3,.1,0,0,0,0,0,0,0,0,0,0,0,0,0,0-.1,.2-.1,.3h0v9.2h0c0,.1,0,.2,.1,.3,0,0,0,0,0,0,0,0,0,0,0,0,0,0,.2,.1,.3,.1h5.9c.2,0,.4-.2,.4-.4v-1.5c0-.2-.2-.4-.4-.4h-4v-1.6h4c.2,0,.4-.2,.4-.4v-1.5c0-.2-.2-.4-.4-.4h-4v-1.6h4Z"/></g></g></g></g></svg>