<?xml version="1.0" encoding="UTF-8"?><svg id="uuid-d0a9197a-eb32-4298-8552-d9726a1dbe90" xmlns="http://www.w3.org/2000/svg" viewBox="0 0 50 40"><defs><style>.uuid-27260665-bf10-43d9-a37d-58f8440fc398{fill:#fff;}.uuid-3e02424b-a044-42dc-8b85-5c53f3b6d2d0{fill:#404040;}</style></defs><path class="uuid-3e02424b-a044-42dc-8b85-5c53f3b6d2d0" d="M25.8,1.4h0c-.4,.5-.8,1-1,1.5-.6-.2-1.2-.4-1.8-.4-1.3,0-2.6,.5-3.5,1.4-.4,.4-.8,.9-1,1.5-.6-.2-1.2-.4-1.8-.4-1.3,0-2.6,.5-3.5,1.4-.3,.3-.6,.7-.8,1.1l-3.8-3.9c-.9-1-2.2-1.5-3.5-1.5-1.3,0-2.6,.5-3.5,1.5-1.8,1.9-1.8,5,.1,7l11.4,11.6h-.2c-2.9,.2-5.4,1.9-6.6,4.6-.6,1.2-.4,2.7,.3,3.8,.8,1.2,2.1,1.8,3.5,1.8l4.6-.2c.9,0,1.7,0,2.5-.1,3-.2,5-.4,7.6,1,2.4,1.2,4.7,1.6,6.9,1.4,.1,.9,.6,1.8,1.3,2.5l1.2,1.2c.9,.9,2,1.4,3.3,1.4,1.2,0,2.4-.5,3.3-1.3l8.1-8h0c1.8-1.8,1.8-4.7,0-6.6l-1.2-1.2c-.7-.7-1.6-1.2-2.6-1.3,0-1.3-.1-2.7-.5-4-1.2-4.4-4.1-8-6.4-10.3l-3.9-4-1.3-1.4c-1.9-1.9-5-2-7,0Z"/><path class="uuid-27260665-bf10-43d9-a37d-58f8440fc398" d="M46.1,26.2c.2,.2,.3,.5,.3,.8,0,.3-.1,.6-.3,.8h0s-8.1,8-8.1,8c-.4,.4-1.1,.4-1.5,0l-1.2-1.2c-.4-.4-.4-1.1,0-1.5h0s8.1-8,8.1-8c.2-.2,.5-.3,.8-.3,.3,0,.6,.1,.8,.3l1.2,1.2Z"/><path class="uuid-27260665-bf10-43d9-a37d-58f8440fc398" d="M31.2,5h0s.3,.3,.3,.3l.7,.7h0s3.3,3.3,3.3,3.3c1.6,1.6,4.5,5,5.5,8.8,.4,1.5,.5,2.8,.3,4.1,0,0-.2,.2-.3,.3l-8.1,8h0c0,.1-.2,.2-.2,.3-1.9,.4-4,.4-6.3-.8-3.5-1.8-6.3-1.6-9.5-1.4-.7,0-1.5,.1-2.3,.1l-4.6,.2c-.2,0-.3-.1-.4-.2,0-.1,0-.2,0-.3,.6-1.4,2-2.4,3.5-2.5l7.9-.5L4,8.1c-.6-.6-.6-1.5-.1-2,.3-.3,.6-.4,1-.4,.4,0,.7,.1,1,.4L14,14.5h0s5.1,5.2,5.1,5.2l2.5-2.5-6.2-6.3c-.3-.3-.4-.6-.4-1,0-.4,.2-.7,.4-1,.3-.3,.6-.4,1-.4,.4,0,.7,.2,1,.4l6.2,6.3,2.5-2.5-4.3-4.4c-.5-.5-.5-1.4,0-1.9h0c.3-.3,.6-.4,1-.4,.4,0,.7,.2,1,.4l4.2,4.3h0c0,0,0,0,0,0l1.3-1.2,1.3-1.2-2.4-2.5c-.5-.5-.5-1.4,0-1.9h0c.5-.5,1.4-.5,1.9,0l1,1.1Z"/></svg>