<svg xmlns="http://www.w3.org/2000/svg" width="50.057" height="39.643" viewBox="0 0 50.057 39.643">
  <g id="グループ_1274" data-name="グループ 1274" transform="translate(-937.17 -2795.292)">
    <g id="グループ_1081" data-name="グループ 1081">
      <path id="パス_280" data-name="パス 280" d="M962.979,2796.7l-.034.034a4.864,4.864,0,0,0-1,1.448,4.937,4.937,0,0,0-5.334,1.037,4.858,4.858,0,0,0-1.032,1.478,4.93,4.93,0,0,0-6.186,2.14l-3.814-3.942a4.931,4.931,0,0,0-7.079.038,5.037,5.037,0,0,0,.129,6.961l11.38,11.659-.152.009a7.681,7.681,0,0,0-6.571,4.564,3.891,3.891,0,0,0,.344,3.787,3.976,3.976,0,0,0,3.467,1.754l4.57-.183c.875-.035,1.686-.092,2.456-.147,2.99-.213,4.965-.354,7.629,1.024a12.457,12.457,0,0,0,6.908,1.383,4.606,4.606,0,0,0,1.266,2.552l1.225,1.249a4.64,4.64,0,0,0,6.559.065l8.126-7.968.032-.032a4.643,4.643,0,0,0,.032-6.526l-1.224-1.249a4.6,4.6,0,0,0-2.623-1.335,13.677,13.677,0,0,0-.479-4.052c-1.175-4.358-4.128-8.033-6.4-10.35l-3.9-3.977-1.326-1.353A4.939,4.939,0,0,0,962.979,2796.7Z" fill="#404040"/>
    </g>
    <path id="パス_281" data-name="パス 281" d="M983.367,2821.572a1.084,1.084,0,0,1-.008,1.526l-.008.008-8.126,7.967a1.086,1.086,0,0,1-1.534-.016l-1.225-1.249a1.085,1.085,0,0,1,.008-1.526l.008-.008,8.126-7.967a1.084,1.084,0,0,1,1.534.016Z" fill="#fff"/>
    <path id="パス_282" data-name="パス 282" d="M968.455,2800.316h0l.255.26.674.688h0l3.258,3.322c1.615,1.647,4.478,4.98,5.5,8.786a9.626,9.626,0,0,1,.257,4.147c-.1.081-.192.163-.283.251l-8.126,7.967-.033.033c-.08.08-.152.165-.224.249a9.044,9.044,0,0,1-6.35-.814c-3.552-1.836-6.315-1.64-9.514-1.412-.734.052-1.509.108-2.344.141l-4.57.183a.443.443,0,0,1-.386-.2.346.346,0,0,1-.039-.349,4.145,4.145,0,0,1,3.544-2.462l7.918-.486-16.827-17.216a1.48,1.48,0,0,1-.1-2.013,1.377,1.377,0,0,1,1.979-.011l8.174,8.39h0l5.116,5.219,2.537-2.487-6.163-6.286a1.368,1.368,0,0,1-.394-.979,1.412,1.412,0,0,1,.413-.97,1.378,1.378,0,0,1,1.949.019l6.163,6.286,2.537-2.487-4.3-4.382a1.38,1.38,0,0,1,.009-1.939l.01-.009a1.376,1.376,0,0,1,1.949.019l4.244,4.328.052.053h0l1.269-1.244,1.268-1.244-2.435-2.484a1.38,1.38,0,0,1,.009-1.94l.009-.009a1.381,1.381,0,0,1,1.95.018Z" fill="#fff"/>
  </g>
</svg>
