<svg xmlns="http://www.w3.org/2000/svg" width="187.658" height="35.669" viewBox="0 0 187.658 35.669">
  <g id="グループ_91" data-name="グループ 91" transform="translate(-8883.512 -499.133)">
    <g id="グループ_85" data-name="グループ 85">
      <g id="グループ_84" data-name="グループ 84">
        <g id="グループ_75" data-name="グループ 75">
          <g id="グループ_74" data-name="グループ 74">
            <path id="パス_27" data-name="パス 27" d="M8992.746,523.35a4.233,4.233,0,0,0-1.519-3.607,6.777,6.777,0,0,0-4.125-1.1h-4.4v14.771h3.664v-5.271h1.145a5.648,5.648,0,0,0,3.862-1.207A4.567,4.567,0,0,0,8992.746,523.35Zm-6.381-1.754h.189a3.969,3.969,0,0,1,1.94.363c.349.208.524.67.524,1.373a1.711,1.711,0,0,1-.5,1.461,3.436,3.436,0,0,1-1.889.387h-.271Z" fill="#fff"/>
          </g>
        </g>
        <g id="グループ_77" data-name="グループ 77">
          <g id="グループ_76" data-name="グループ 76">
            <path id="パス_28" data-name="パス 28" d="M8997.422,518.264l-6.253,15.145h3.879l1.26-2.972h4.869l1.18,2.972h3.92l-6.083-15.145Zm2.664,9.253h-2.681l1.258-3.819Z" fill="#fff"/>
          </g>
        </g>
        <g id="グループ_79" data-name="グループ 79">
          <g id="グループ_78" data-name="グループ 78">
            <path id="パス_29" data-name="パス 29" d="M9016.512,525.982a4.528,4.528,0,0,0,.9-2.762,4.11,4.11,0,0,0-1.494-3.475,6.422,6.422,0,0,0-3.965-1.107h-4.382v14.771h3.664v-4.948l3.237,4.948h4.464l-4.412-6.061A3.656,3.656,0,0,0,9016.512,525.982Zm-5.277-4.424h.067a3.766,3.766,0,0,1,1.9.381,1.449,1.449,0,0,1,.547,1.355,1.557,1.557,0,0,1-.569,1.41,3.482,3.482,0,0,1-1.9.42h-.048Z" fill="#fff"/>
          </g>
        </g>
        <g id="グループ_80" data-name="グループ 80">
          <path id="パス_30" data-name="パス 30" d="M9032.66,518.638h-4.6L9023.79,524v-5.366h-3.664v14.771h3.664v-5.737l4.433,5.737h4.716l-6.4-7.917Z" fill="#fff"/>
        </g>
        <g id="グループ_81" data-name="グループ 81">
          <rect id="長方形_28" data-name="長方形 28" width="3.664" height="14.771" transform="translate(9034.349 518.638)" fill="#fff"/>
        </g>
        <g id="グループ_82" data-name="グループ 82">
          <path id="パス_31" data-name="パス 31" d="M9050.988,527.555l-7.607-9.291h-2.653v15.145h3.664V524.4L9052,533.69h2.653V518.638h-3.664Z" fill="#fff"/>
        </g>
        <g id="グループ_83" data-name="グループ 83">
          <path id="パス_32" data-name="パス 32" d="M9063.89,525.236v2.921h3.216a2.814,2.814,0,0,1-.235.719,3.209,3.209,0,0,1-.688.938,3.222,3.222,0,0,1-2.2.862,3.7,3.7,0,0,1-1.705-.384,3.66,3.66,0,0,1-1.257-1.043,4.85,4.85,0,0,1-.769-1.494,5.609,5.609,0,0,1-.259-1.675,5.8,5.8,0,0,1,.259-1.7,5.011,5.011,0,0,1,.771-1.532,3.79,3.79,0,0,1,1.25-1.082,3.515,3.515,0,0,1,1.688-.4,3.361,3.361,0,0,1,1.9.569,3.614,3.614,0,0,1,1.285,1.48l.146.313,3.266-1.619-.167-.309a6.47,6.47,0,0,0-2.614-2.621,7.7,7.7,0,0,0-3.738-.92,8.131,8.131,0,0,0-3.189.616,7.352,7.352,0,0,0-2.491,1.7,7.663,7.663,0,0,0-1.584,2.5,8.347,8.347,0,0,0-.021,5.907,7.478,7.478,0,0,0,1.543,2.476,7.246,7.246,0,0,0,2.439,1.7,8.357,8.357,0,0,0,6.306,0,6.3,6.3,0,0,0,2.318-1.739,7.482,7.482,0,0,0,1.361-2.515,9.834,9.834,0,0,0,.442-2.981v-.694Z" fill="#fff"/>
        </g>
      </g>
    </g>
    <g id="グループ_90" data-name="グループ 90">
      <g id="グループ_86" data-name="グループ 86">
        <path id="パス_33" data-name="パス 33" d="M8907.439,508.434a12.219,12.219,0,0,0-6.874-1.438c-1.1.129-2.676.789-3,1.849a2.161,2.161,0,0,0,.705,2.131,5.358,5.358,0,0,0,2.1,1.059c2.95.92,6.192,1.272,8.664,3.129a9.707,9.707,0,0,1,3.212,10.067,12.819,12.819,0,0,1-7.209,8.1,19.081,19.081,0,0,1-10.989,1.145,37.986,37.986,0,0,1-10.531-3.726l4.188-7.842c3.406,2.526,6.794,3.723,10.416,3.274a3.092,3.092,0,0,0,2.928-2.318c.224-1.413-1.177-2.547-2.512-3.06-2.856-1.1-6.326-1.17-8.923-2.788-3.377-2.1-3.885-5.681-3.267-9.255a8.757,8.757,0,0,1,.816-2.382,10.862,10.862,0,0,1,3.743-4.287c6.313-4.191,14.513-2.529,16.646-2a26.765,26.765,0,0,1,4.042,1.321C8910.447,503.355,8908.588,506.5,8907.439,508.434Z" fill="#fff"/>
      </g>
      <g id="グループ_89" data-name="グループ 89">
        <g id="グループ_87" data-name="グループ 87">
          <path id="パス_34" data-name="パス 34" d="M8949.545,503.292l.156,1.8c1.557-3.649,5.8-5.587,10.033-5.923a13.762,13.762,0,0,1,6.347,1.047,9.84,9.84,0,0,1,4.115,2.971,11.982,11.982,0,0,1,2.193,4.422,21.475,21.475,0,0,1,.667,5.538v20.257h-10.973v-15.62c0-1.44-.156-2.663-.156-3.68a5.928,5.928,0,0,0-5.8-5.89,6.152,6.152,0,0,0-3.645.979,5.707,5.707,0,0,0-2,2.5,13.081,13.081,0,0,0-.782,3.463c-.106,1.08-.156,2.295-.156,3.646v14.6h-10.973V500.253h10.973Z" fill="#fff"/>
        </g>
        <g id="グループ_88" data-name="グループ 88">
          <path id="パス_35" data-name="パス 35" d="M8938.572,530.37l-.156-1.8c-1.557,3.649-5.8,5.588-10.033,5.924a13.775,13.775,0,0,1-6.347-1.047,9.849,9.849,0,0,1-4.115-2.971,12,12,0,0,1-2.194-4.422,21.524,21.524,0,0,1-.667-5.538V500.253h10.974v15.62c0,1.441.156,2.663.156,3.68a5.928,5.928,0,0,0,5.8,5.89,6.145,6.145,0,0,0,3.645-.979,5.7,5.7,0,0,0,2-2.5,13.127,13.127,0,0,0,.782-3.464c.106-1.079.156-2.295.156-3.645v-14.6h10.973v33.156h-10.973Z" fill="#fff"/>
        </g>
      </g>
    </g>
  </g>
</svg>
