<?xml version="1.0" encoding="UTF-8"?><svg id="uuid-c0973f06-bd49-452a-8f65-0c971e8f9067" xmlns="http://www.w3.org/2000/svg" viewBox="0 0 58 58"><defs><style>.uuid-bd3903c3-fccc-4855-bb3b-1b898ba25c1c{fill:#fff;}.uuid-150f742b-c95e-4435-9344-ec89892b1c79{fill:#1b9df0;}</style></defs><rect class="uuid-bd3903c3-fccc-4855-bb3b-1b898ba25c1c" width="58" height="58" rx="12.6" ry="12.6"/><path class="uuid-150f742b-c95e-4435-9344-ec89892b1c79" d="M22.3,43.7c13.7,0,21.2-11.3,21.2-21.2s0-.6,0-1c1.5-1,2.7-2.4,3.7-3.9-1.3,.6-2.8,1-4.3,1.2,1.5-.9,2.7-2.4,3.3-4.1-1.4,.9-3,1.5-4.7,1.8-1.4-1.4-3.3-2.3-5.4-2.3-4.1,0-7.4,3.3-7.4,7.4s0,1.2,.2,1.7c-6.2-.3-11.7-3.3-15.3-7.8-.6,1.1-1,2.4-1,3.7,0,2.6,1.3,4.9,3.3,6.2-1.2,0-2.4-.4-3.4-.9,0,0,0,0,0,0,0,3.6,2.6,6.6,6,7.3-.6,.2-1.3,.3-2,.3s-.9,0-1.4-.1c.9,3,3.7,5.1,6.9,5.2-2.5,2-5.8,3.2-9.2,3.2s-1.2,0-1.8-.1c3.3,2.1,7.2,3.3,11.4,3.3"/></svg>